# xmcd
# 
# Track frame offsets:
#     150
#     23900
#     41900
#     62450
#     85675
#     103175
#     121550
#     143450
#     163350
#     180525
# 
# Disc length: 2696
# 
# Revision: 1
# Processed by: cddbd v1.5.2PL0 Copyright (c) Steve Scherf et al.
# Submitted via: fre:ac v1.0.17
# 
DISCID=7a0a860a
DTITLE=林隆璇 - 心急如焚
DYEAR=1995
DGENRE=Blues
TTITLE0=心焚如火
TTITLE1=我是多麼認真對你
TTITLE2=防風林
TTITLE3=情人的情人
TTITLE4=今後有你
TTITLE5=潮汐
TTITLE6=從來沒有停止愛你
TTITLE7=陪你感受
TTITLE8=相見甚歡
TTITLE9=匆匆遠行
EXTD=YEAR: 1995
EXTT0=
EXTT1=
EXTT2=
EXTT3=
EXTT4=
EXTT5=
EXTT6=
EXTT7=
EXTT8=
EXTT9=
PLAYORDER=
